<?xml version="1.0" encoding="UTF-8"?>
<svg width="14px" height="14px" viewBox="0 0 14 14" version="1.1" xmlns="http://www.w3.org/2000/svg" xmlns:xlink="http://www.w3.org/1999/xlink">
    <!-- Generator: Sketch 42 (36781) - http://www.bohemiancoding.com/sketch -->
    <title>Иконка - Логин</title>
    <desc>Created with Sketch.</desc>
    <defs></defs>
    <g id="-" stroke="none" stroke-width="1" fill="none" fill-rule="evenodd" stroke-linecap="round" stroke-linejoin="round">
        <g id="Главное-меню---Логин" transform="translate(-1207.000000, -17.000000)" stroke="#FFFFFF" fill="#FFFFFF">
            <g id="top_bar">
                <g id="Login---Администраор-Агентства" transform="translate(1206.000000, 0.000000)">
                    <g id="Иконка---Логин" transform="translate(0.000000, 16.000000)">
                        <g id="noun_659759_cc">
                            <g fill-rule="nonzero" stroke-width="0.4">
                                <g transform="translate(2.000000, 1.333333)">
                                    <g id="Group">
                                        <g id="Shape">
                                            <path d="M5.98125,7.34791667 C7.93629375,7.34791667 9.5275125,5.740625 9.5275125,3.76604167 C9.5275125,1.79041667 7.93629375,0.183125 5.98125,0.183125 C4.02620625,0.183125 2.43519375,1.79041667 2.43519375,3.76604167 C2.43519375,5.740625 4.02620625,7.34791667 5.98125,7.34791667 Z M5.98125,0.993958333 C7.49409375,0.993958333 8.72458125,2.23770833 8.72458125,3.76583333 C8.72458125,5.29375 7.49409375,6.53666667 5.98125,6.53666667 C4.4686125,6.53666667 3.238125,5.29375 3.238125,3.76583333 C3.238125,2.23791667 4.4686125,0.993958333 5.98125,0.993958333 Z"></path>
                                            <path d="M5.98125,8.55270833 C3.27256875,8.55270833 0.89079375,10.2995833 0.05506875,12.9 L0.81901875,13.1502083 C1.54749375,10.8854167 3.62175,9.36395833 5.98125,9.36395833 C8.34095625,9.36395833 10.4152125,10.8854167 11.1436875,13.1502083 L11.9074312,12.9 C11.0717062,10.2995833 8.68993125,8.55270833 5.98125,8.55270833 Z"></path>
                                        </g>
                                    </g>
                                </g>
                            </g>
                        </g>
                    </g>
                </g>
            </g>
        </g>
    </g>
</svg>