<?xml version="1.0" encoding="UTF-8"?>
<svg width="225px" height="36px" viewBox="0 0 225 36" version="1.1" xmlns="http://www.w3.org/2000/svg" xmlns:xlink="http://www.w3.org/1999/xlink">
    <!-- Generator: Sketch 42 (36781) - http://www.bohemiancoding.com/sketch -->
    <title>logo_INNA TOUR-01 Copy 3</title>
    <desc>Created with Sketch.</desc>
    <defs></defs>
    <g id="-" stroke="none" stroke-width="1" fill="none" fill-rule="evenodd">
        <g id="Главное-меню---Логин" transform="translate(-376.000000, -6.000000)">
            <g id="top_bar">
                <g id="logo_INNA-TOUR-01-Copy-3" transform="translate(376.000000, 6.000000)">
                    <path d="M45.7013672,32.4 C21.4929384,32.4 1.86789551,25.4460844 1.86789551,16.8684039 C1.86789551,8.29072345 21.4929384,1.3368079 45.7013672,1.3368079 C69.909796,1.3368079 89.5348389,8.29072345 89.5348389,16.8684039 C89.5348389,25.4460844 69.909796,32.4 45.7013672,32.4 Z" id="Fill-1" fill="#FFFFFF"></path>
                    <path d="M74.4996094,26.9256565 C73.0415039,26.9256565 72.5827148,25.9282145 72.5827148,25.9282145 L70.5893555,21.3271395 L66.3996094,21.3271395 C66.3996094,21.3271395 66.2220703,26.9256565 62.2617187,26.9256565 C58.7355469,26.9256565 57.4083984,24.4452452 57.4083984,24.4452452 L51.225293,15.8570409 C51.225293,15.8570409 51.0222656,15.5491884 50.7665039,15.5491884 C50.5098633,15.5491884 50.4588867,15.959072 50.4588867,15.959072 L50.4588867,24.8041132 C50.4588867,24.8041132 50.5617187,26.9529234 48.5683594,26.9529234 C46.6787109,26.9529234 46.5257812,24.8551287 46.5257812,24.8551287 L46.5257812,13.045908 C46.5257812,13.045908 46.6277344,10.1556132 49.2336914,10.1556132 C51.7886719,10.1556132 52.809082,11.869032 52.809082,11.869032 L60.6779297,22.6042874 C60.6779297,22.6042874 60.9855469,23.0651865 61.7510742,23.0651865 C62.6712891,23.0651865 62.6712891,21.8390541 62.6712891,21.8390541 L62.6712891,13.045908 C62.6712891,13.045908 62.925293,10.1556132 65.9926758,10.1556132 C70.284375,10.1556132 71.1527344,13.1479392 71.1527344,13.1479392 L75.7757812,24.7020821 C75.7757812,24.7020821 76.3119141,26.9256565 74.4996094,26.9256565 L74.4996094,26.9256565 Z M44.9586914,23.4240546 C44.9586914,23.4240546 44.8391602,26.9256565 41.3393555,26.9256565 C37.3886719,26.9256565 35.6774414,24.0520736 35.6774414,24.0520736 L29.9548828,16.0786947 C29.9548828,16.0786947 29.6648438,15.600204 29.3405273,15.600204 C28.9239258,15.600204 29.0012695,16.0786947 29.0012695,16.0786947 L29.0012695,22.3237019 C29.0012695,22.3237019 28.5908203,26.987227 23.4307617,26.987227 C18.1696289,26.987227 17.8277344,22.2146341 17.8277344,22.2146341 L17.8277344,11.6482578 C17.8277344,11.6482578 18.1353516,10.1476969 19.7024414,10.1476969 C21.2686523,10.1476969 21.5753906,11.6658494 21.5753906,11.6658494 L21.5753906,21.6684159 C21.5753906,21.6684159 21.7450195,23.373039 23.4817383,23.373039 C25.2193359,23.373039 25.2536133,21.6684159 25.2536133,21.6684159 L25.2536133,13.045908 C25.2536133,13.045908 25.0505859,10.1476969 27.7734375,10.1476969 C30.2774414,10.1476969 31.1458008,11.869032 31.1458008,11.869032 L38.9469727,22.2146341 C38.9469727,22.2146341 39.3547852,22.9631554 40.3083984,22.9631554 C41.2620117,22.9631554 41.1943359,21.8733577 41.1943359,21.8733577 L41.1943359,12.1918373 C41.1943359,12.1918373 41.2110352,10.1476969 43.1191406,10.1476969 C45.0272461,10.1476969 44.9586914,12.0572618 44.9586914,12.0572618 L44.9586914,23.4240546 L44.9586914,23.4240546 Z M19.8043945,5.11914677 C21.0172852,5.11914677 22.0007813,6.10427467 22.0007813,7.31809297 C22.0007813,8.53279086 21.0172852,9.51703918 19.8043945,9.51703918 C18.590625,9.51703918 17.60625,8.53279086 17.60625,7.31809297 C17.60625,6.10427467 18.590625,5.11914677 19.8043945,5.11914677 L19.8043945,5.11914677 Z M45.50625,0.710699414 C20.6780273,0.710699414 0.733886719,8.70342908 0.733886719,18.3348135 C0.733886719,27.9661978 20.8625977,35.774216 45.6908203,35.774216 C70.5199219,35.774216 90.6486328,27.9661978 90.6486328,18.3348135 C90.6486328,8.70342908 70.3353516,0.710699414 45.50625,0.710699414 L45.50625,0.710699414 Z" id="Fill-2" fill="#7CB621"></path>
                    <path d="M66.9120117,13.8621569 C66.4769531,13.8621569 66.3996094,14.4769822 66.3996094,14.4769822 L66.3996094,18.4148551 L69.3131836,18.4148551 L67.8577148,14.4514745 C67.8577148,14.4514745 67.7803711,13.8621569 66.9120117,13.8621569" id="Fill-3" fill="#7CB621"></path>
                    <polyline id="Fill-4" fill="#7CB621" points="106.925098 20.8310572 113.71377 11.4741013 113.71377 10.9041344 111.918164 10.9041344 111.918164 9.58916461 118.859766 9.58916461 118.859766 10.9041344 117.020215 10.9041344 117.020215 23.8559276 118.859766 23.8559276 118.859766 25.1480284 111.918164 25.1480284 111.918164 23.8559276 113.71377 23.8559276 113.71377 13.6651313 106.925098 23.0000977 106.925098 23.8559276 108.764648 23.8559276 108.764648 25.1480284 101.801074 25.1480284 101.801074 23.8559276 103.618652 23.8559276 103.618652 10.9041344 101.801074 10.9041344 101.801074 9.58916461 108.764648 9.58916461 108.764648 10.9041344 106.925098 10.9041344 106.925098 20.8310572"></polyline>
                    <polyline id="Fill-5" fill="#7CB621" points="125.888379 17.5651823 125.888379 23.8559276 127.705957 23.8559276 127.705957 25.1480284 120.743262 25.1480284 120.743262 23.8559276 122.537988 23.8559276 122.537988 10.9041344 120.743262 10.9041344 120.743262 9.58916461 127.705957 9.58916461 127.705957 10.9041344 125.888379 10.9041344 125.888379 16.2071131 132.851953 16.2071131 132.851953 10.9041344 131.034375 10.9041344 131.034375 9.58916461 137.997949 9.58916461 137.997949 10.9041344 136.180371 10.9041344 136.180371 23.8559276 137.997949 23.8559276 137.997949 25.1480284 131.034375 25.1480284 131.034375 23.8559276 132.851953 23.8559276 132.851953 17.5651823 125.888379 17.5651823"></polyline>
                    <polyline id="Fill-6" fill="#7CB621" points="145.093359 17.5651823 145.093359 23.8559276 146.910938 23.8559276 146.910938 25.1480284 139.947363 25.1480284 139.947363 23.8559276 141.742969 23.8559276 141.742969 10.9041344 139.947363 10.9041344 139.947363 9.58916461 146.910938 9.58916461 146.910938 10.9041344 145.093359 10.9041344 145.093359 16.2071131 152.056934 16.2071131 152.056934 10.9041344 150.239355 10.9041344 150.239355 9.58916461 157.20293 9.58916461 157.20293 10.9041344 155.385352 10.9041344 155.385352 23.8559276 157.20293 23.8559276 157.20293 25.1480284 150.239355 25.1480284 150.239355 23.8559276 152.056934 23.8559276 152.056934 17.5651823 145.093359 17.5651823"></polyline>
                    <path d="M164.93291,13.0080862 L162.239063,19.5820557 L168.063574,19.5820557 L165.151758,13.0080862 L165.107813,12.4812187 L164.997949,12.4812187 L164.93291,13.0080862 L164.93291,13.0080862 Z M168.58916,20.8530467 L161.757422,20.8530467 L160.575293,23.8559276 L162.239063,23.8559276 L162.239063,25.1480284 L157.552734,25.1480284 L157.552734,23.8559276 L159.282422,23.8559276 L165.063867,9.58916461 L166.968457,9.58916461 L173.341406,23.8559276 L175.093066,23.8559276 L175.049121,25.1480284 L168.063574,25.1480284 L168.063574,23.8559276 L169.85918,23.8559276 L168.58916,20.8530467 L168.58916,20.8530467 Z" id="Fill-7" fill="#7CB621"></path>
                    <polygon id="Fill-8" fill="#7CB621" points="185.910645 25.1480284 185.910645 23.8559276 187.727344 23.8559276 187.727344 10.9041344 183.96123 10.9041344 183.96123 12.547187 182.560254 12.547187 182.560254 9.58916461 196.22373 9.58916461 196.22373 12.547187 194.778809 12.547187 194.778809 10.9041344 191.056641 10.9041344 191.056641 23.8559276 192.851367 23.8559276 192.851367 25.1480284 189.413965 25.1480284"></polygon>
                    <path d="M205.311621,18.0700603 L208.487109,10.9041344 L206.713477,10.9041344 L206.713477,9.58916461 L211.508789,9.58916461 L211.508789,10.9041344 L209.779102,10.9041344 L204.479297,22.8690405 C204.143555,23.6879281 203.782324,24.3150676 203.395605,24.7539772 C203.008887,25.1920073 202.398926,25.4110224 201.56748,25.4110224 C200.779102,25.4110224 200.106738,25.2351067 199.552148,24.8850344 L200.472363,22.7599728 C201.128906,23.2419818 201.647461,23.4821067 202.027148,23.4821067 C202.59668,23.4821067 203.048437,23.1469873 203.38418,22.4749894 L203.581934,21.9050225 L197.932324,10.9041344 L196.552441,10.9041344 L196.552441,9.58916461 L203.143359,9.58916461 L203.143359,10.9041344 L201.282715,10.9041344 L205.004883,18.0700603 L205.092773,18.6400272 L205.22373,18.6400272 L205.311621,18.0700603" id="Fill-9" fill="#7CB621"></path>
                    <path d="M217.618066,18.0260814 C218.128711,18.0841336 218.701758,18.0445526 219.337207,17.9055792 C219.971777,17.7666058 220.537793,17.405099 221.034375,16.8210589 C221.530078,16.2370188 221.756836,15.3380896 221.712891,14.1251508 C221.668945,12.8251338 221.248828,11.9411575 220.453418,11.4741013 C219.658008,11.0061655 218.713184,10.8161766 217.618066,10.9041344 L217.618066,18.0260814 L217.618066,18.0260814 Z M217.618066,19.2091145 L217.618066,23.8559276 L219.47959,23.8559276 L219.47959,25.1480284 L212.47207,25.1480284 L212.47207,23.8559276 L214.267676,23.8559276 L214.267676,10.9041344 L212.47207,10.9041344 L212.47207,9.58916461 L218.318555,9.58916461 C220.187109,9.58916461 221.760352,9.88206425 223.037402,10.4652248 C224.314453,11.0501445 224.953418,12.3211354 224.953418,14.2781975 C224.982422,14.995054 224.876953,15.6635336 224.636133,16.2836364 C224.395312,16.9046188 224.001562,17.4420413 223.454004,17.8941446 C222.906445,18.3480071 222.162012,18.6910427 221.219824,18.9250106 C220.278516,19.1589785 219.07793,19.253973 217.618066,19.2091145 L217.618066,19.2091145 Z" id="Fill-10" fill="#7CB621"></path>
                </g>
            </g>
        </g>
    </g>
</svg>