<?xml version="1.0" encoding="UTF-8"?>
<svg width="18px" height="12px" viewBox="0 0 18 12" version="1.1" xmlns="http://www.w3.org/2000/svg" xmlns:xlink="http://www.w3.org/1999/xlink">
    <!-- Generator: Sketch 42 (36781) - http://www.bohemiancoding.com/sketch -->
    <title>Иконка - Меню (White)</title>
    <desc>Created with Sketch.</desc>
    <defs></defs>
    <g id="-" stroke="none" stroke-width="1" fill="none" fill-rule="evenodd">
        <g id="Главное-меню---Логин" transform="translate(-1523.000000, -18.000000)" fill="#EFF2F5">
            <g id="top_bar">
                <g id="Иконка---Меню-(White)" transform="translate(1520.000000, 12.000000)">
                    <g id="Material/Icons-black/menu-Copy">
                        <g transform="translate(3.000000, 6.000000)">
                            <path d="M0,1 C0,0.44771525 0.444946289,0 0.993397683,0 L17.0066023,0 C17.5552407,0 18,0.443864822 18,1 C18,1.55228475 17.5550537,2 17.0066023,2 L0.993397683,2 C0.444759292,2 0,1.55613518 0,1 Z M0,6 C0,5.44771525 0.444946289,5 0.993397683,5 L17.0066023,5 C17.5552407,5 18,5.44386482 18,6 C18,6.55228475 17.5550537,7 17.0066023,7 L0.993397683,7 C0.444759292,7 0,6.55613518 0,6 Z M0,11 C0,10.4477153 0.444946289,10 0.993397683,10 L17.0066023,10 C17.5552407,10 18,10.4438648 18,11 C18,11.5522847 17.5550537,12 17.0066023,12 L0.993397683,12 C0.444759292,12 0,11.5561352 0,11 Z" id="Shape"></path>
                        </g>
                    </g>
                </g>
            </g>
        </g>
    </g>
</svg>